<svg xmlns="http://www.w3.org/2000/svg" width="32" height="32" viewBox="0 0 32 32" fill="none">
  <path fill-rule="evenodd" clip-rule="evenodd" d="M12.7892 4.26638C12.4645 4.54309 12.3022 4.68145 12.1288 4.79767C11.7313 5.06407 11.2849 5.24897 10.8155 5.34165C10.6107 5.38208 10.3981 5.39904 9.97279 5.43298C8.90428 5.51825 8.37002 5.56088 7.92429 5.71832C6.89336 6.08246 6.08246 6.89336 5.71832 7.92429C5.56088 8.37002 5.51825 8.90428 5.43298 9.97279C5.39904 10.3981 5.38208 10.6107 5.34165 10.8155C5.24897 11.2849 5.06407 11.7313 4.79767 12.1288C4.68145 12.3022 4.54309 12.4645 4.26638 12.7892C3.57113 13.6051 3.22349 14.013 3.01964 14.4395C2.54814 15.426 2.54814 16.5727 3.01964 17.5592C3.22349 17.9857 3.57112 18.3936 4.26638 19.2095C4.54306 19.5342 4.68146 19.6965 4.79767 19.8699C5.06407 20.2674 5.24897 20.7138 5.34165 21.1832C5.38208 21.388 5.39904 21.6006 5.43298 22.0259C5.51825 23.0944 5.56088 23.6287 5.71832 24.0744C6.08246 25.1053 6.89336 25.9162 7.92429 26.2804C8.37002 26.4378 8.90428 26.4804 9.97279 26.5657C10.3981 26.5997 10.6107 26.6166 10.8155 26.6571C11.2849 26.7497 11.7313 26.9346 12.1288 27.201C12.3022 27.3172 12.4645 27.4556 12.7892 27.7323C13.6051 28.4276 14.013 28.7752 14.4395 28.9791C15.426 29.4506 16.5727 29.4506 17.5592 28.9791C17.9857 28.7752 18.3936 28.4276 19.2095 27.7323C19.5342 27.4556 19.6965 27.3172 19.8699 27.201C20.2674 26.9346 20.7138 26.7497 21.1832 26.6571C21.388 26.6166 21.6006 26.5997 22.0259 26.5657C23.0944 26.4804 23.6287 26.4378 24.0744 26.2804C25.1053 25.9162 25.9162 25.1053 26.2804 24.0744C26.4378 23.6287 26.4804 23.0944 26.5657 22.0259C26.5997 21.6006 26.6166 21.388 26.6571 21.1832C26.7497 20.7138 26.9346 20.2674 27.201 19.8699C27.3172 19.6965 27.4556 19.5342 27.7323 19.2095C28.4276 18.3936 28.7752 17.9857 28.9791 17.5592C29.4506 16.5727 29.4506 15.426 28.9791 14.4395C28.7752 14.013 28.4276 13.6051 27.7323 12.7892C27.4556 12.4645 27.3172 12.3022 27.201 12.1288C26.9346 11.7313 26.7497 11.2849 26.6571 10.8155C26.6166 10.6107 26.5997 10.3981 26.5657 9.97279C26.4804 8.90428 26.4378 8.37002 26.2804 7.92429C25.9162 6.89336 25.1053 6.08246 24.0744 5.71832C23.6287 5.56088 23.0944 5.51825 22.0259 5.43298C21.6006 5.39904 21.388 5.38208 21.1832 5.34165C20.7138 5.24897 20.2674 5.06407 19.8699 4.79767C19.6965 4.68145 19.5342 4.54309 19.2095 4.26638C18.3936 3.57112 17.9857 3.22349 17.5592 3.01964C16.5727 2.54814 15.426 2.54814 14.4395 3.01964C14.013 3.22349 13.6051 3.57113 12.7892 4.26638ZM21.1072 10.8921C21.531 11.3159 21.531 12.003 21.1072 12.4268L12.4261 21.1079C12.0023 21.5317 11.3152 21.5317 10.8914 21.1079C10.4677 20.6842 10.4677 19.9971 10.8914 19.5733L19.5726 10.8921C19.9964 10.4684 20.6835 10.4684 21.1072 10.8921ZM21.0633 19.6172C21.0633 20.4163 20.4156 21.0641 19.6165 21.0641C18.8174 21.0641 18.1696 20.4163 18.1696 19.6172C18.1696 18.8181 18.8174 18.1703 19.6165 18.1703C20.4156 18.1703 21.0633 18.8181 21.0633 19.6172ZM12.3822 13.8297C13.1813 13.8297 13.829 13.182 13.829 12.3829C13.829 11.5838 13.1813 10.936 12.3822 10.936C11.5831 10.936 10.9353 11.5838 10.9353 12.3829C10.9353 13.182 11.5831 13.8297 12.3822 13.8297Z" fill="white"/>
</svg>