<svg xmlns="http://www.w3.org/2000/svg" width="110" height="20" viewBox="0 0 110 20" fill="none">
<path d="M9.04894 2.92705C9.3483 2.00574 10.6517 2.00574 10.9511 2.92705L12.0206 6.21885C12.1545 6.63087 12.5385 6.90983 12.9717 6.90983H16.4329C17.4016 6.90983 17.8044 8.14945 17.0207 8.71885L14.2205 10.7533C13.87 11.0079 13.7234 11.4593 13.8572 11.8713L14.9268 15.1631C15.2261 16.0844 14.1717 16.8506 13.388 16.2812L10.5878 14.2467C10.2373 13.9921 9.7627 13.9921 9.41221 14.2467L6.61204 16.2812C5.82833 16.8506 4.77385 16.0844 5.0732 15.1631L6.14277 11.8713C6.27665 11.4593 6.12999 11.0079 5.7795 10.7533L2.97933 8.71885C2.19562 8.14945 2.59839 6.90983 3.56712 6.90983H7.02832C7.46154 6.90983 7.8455 6.63087 7.97937 6.21885L9.04894 2.92705Z" fill="#FA904E"/>
<path d="M31.2716 2.92705C31.571 2.00574 32.8744 2.00574 33.1737 2.92705L34.2433 6.21885C34.3772 6.63087 34.7611 6.90983 35.1943 6.90983H38.6555C39.6243 6.90983 40.027 8.14945 39.2433 8.71885L36.4432 10.7533C36.0927 11.0079 35.946 11.4593 36.0799 11.8713L37.1495 15.1631C37.4488 16.0844 36.3943 16.8506 35.6106 16.2812L32.8104 14.2467C32.46 13.9921 31.9854 13.9921 31.6349 14.2467L28.8347 16.2812C28.051 16.8506 26.9965 16.0844 27.2959 15.1631L28.3654 11.8713C28.4993 11.4593 28.3526 11.0079 28.0022 10.7533L25.202 8.71885C24.4183 8.14945 24.8211 6.90983 25.7898 6.90983H29.251C29.6842 6.90983 30.0682 6.63087 30.202 6.21885L31.2716 2.92705Z" fill="#FA904E"/>
<path d="M54.055 2.758C54.3639 1.85723 55.6378 1.85723 55.9468 2.758L57.139 6.23425C57.2776 6.63839 57.6577 6.90983 58.0849 6.90983H61.8232C62.805 6.90983 63.1989 8.17692 62.3902 8.73356L59.4605 10.7501C59.091 11.0044 58.9361 11.4738 59.0816 11.8982L60.2223 15.2241C60.535 16.136 59.5035 16.9188 58.7094 16.3723L55.5678 14.2099C55.2264 13.9749 54.7753 13.9749 54.4339 14.2099L51.2923 16.3723C50.4982 16.9188 49.4667 16.136 49.7794 15.2241L50.9201 11.8982C51.0657 11.4738 50.9108 11.0044 50.5412 10.7501L47.6115 8.73356C46.8028 8.17692 47.1968 6.90983 48.1785 6.90983H51.9168C52.344 6.90983 52.7241 6.63839 52.8627 6.23425L54.055 2.758Z" fill="#FA904E"/>
<path d="M76.8263 2.92705C77.1256 2.00574 78.429 2.00574 78.7284 2.92705L79.798 6.21885C79.9318 6.63087 80.3158 6.90983 80.749 6.90983H84.2102C85.1789 6.90983 85.5817 8.14945 84.798 8.71885L81.9978 10.7533C81.6474 11.0079 81.5007 11.4593 81.6346 11.8713L82.7041 15.1631C83.0035 16.0844 81.949 16.8506 81.1653 16.2812L78.3651 14.2467C78.0146 13.9921 77.54 13.9921 77.1896 14.2467L74.3894 16.2812C73.6057 16.8506 72.5512 16.0844 72.8505 15.1631L73.9201 11.8713C74.054 11.4593 73.9073 11.0079 73.5568 10.7533L70.7567 8.71885C69.973 8.14945 70.3757 6.90983 71.3445 6.90983H74.8057C75.2389 6.90983 75.6228 6.63087 75.7567 6.21885L76.8263 2.92705Z" fill="#FA904E"/>
<path d="M99.0489 2.92705C99.3483 2.00574 100.652 2.00574 100.951 2.92705L102.021 6.21885C102.155 6.63087 102.538 6.90983 102.972 6.90983H106.433C107.402 6.90983 107.804 8.14945 107.021 8.71885L104.22 10.7533C103.87 11.0079 103.723 11.4593 103.857 11.8713L104.927 15.1631C105.226 16.0844 104.172 16.8506 103.388 16.2812L100.588 14.2467C100.237 13.9921 99.7627 13.9921 99.4122 14.2467L96.612 16.2812C95.8283 16.8506 94.7739 16.0844 95.0732 15.1631L96.1428 11.8713C96.2766 11.4593 96.13 11.0079 95.7795 10.7533L92.9793 8.71885C92.1956 8.14945 92.5984 6.90983 93.5671 6.90983H97.0283C97.4615 6.90983 97.8455 6.63087 97.9794 6.21885L99.0489 2.92705Z" fill="#FA904E"/>
</svg>