<svg xmlns="http://www.w3.org/2000/svg" width="32" height="32" viewBox="0 0 32 32" fill="none">
  <path d="M16 25.2099C13.2315 25.2099 10.1092 24.5869 7.64793 23.5465C6.74519 23.1607 5.97202 22.5367 5.34005 22.0441C5.3087 22.0198 5.27127 22.0049 5.23199 22.001C5.1927 21.9971 5.15314 22.0045 5.11776 22.0222C5.08239 22.04 5.05261 22.0674 5.0318 22.1015C5.01099 22.1355 4.99997 22.1747 5 22.2148V22.8898C5 24.3959 6.24226 25.7454 8.49779 26.6897C10.5153 27.5348 13.1797 28 16 28C18.8203 28 21.4841 27.5348 23.5022 26.6897C25.7577 25.7464 27 24.3959 27 22.8898V22.2148C27 22.1747 26.989 22.1355 26.9682 22.1015C26.9474 22.0674 26.9176 22.04 26.8822 22.0222C26.8469 22.0045 26.8073 21.9971 26.768 22.001C26.7287 22.0049 26.6913 22.0198 26.66 22.0441C26.028 22.5362 25.2548 23.1607 24.3515 23.5465C21.8903 24.5869 18.7685 25.2099 16 25.2099Z" fill="white"/>
  <path d="M27 8.89689C26.9572 7.46425 25.7213 6.18187 23.5096 5.27772C21.4862 4.45389 18.8209 4 16 4C13.1791 4 10.5137 4.45389 8.49514 5.27772C6.28562 6.17979 5.04971 7.45959 5.00476 8.8886L5 9.80311C5 10.1352 5.275 10.657 5.7737 11.0845C6.36231 11.5886 7.23596 12.086 8.30053 12.5212C10.5656 13.4487 13.4441 14 16 14C18.5559 14 21.4344 13.4466 23.6995 12.5192C24.764 12.0839 25.6377 11.5865 26.2263 11.0824C26.725 10.6575 27 10.1358 27 9.80311V8.89689Z" fill="white"/>
  <path d="M24.3515 14.5194C21.8908 15.5436 18.7685 16.1535 16 16.1535C13.2315 16.1535 10.1092 15.5436 7.64794 14.5194C6.7452 14.1425 5.97203 13.5289 5.34006 13.0434C5.30857 13.0194 5.27094 13.0047 5.23147 13.0009C5.192 12.9972 5.15227 13.0046 5.11682 13.0223C5.08137 13.04 5.05162 13.0673 5.03097 13.101C5.01031 13.1348 4.99959 13.1736 5.00001 13.2131V14.8356C5.00001 15.1735 5.27501 15.5989 5.77371 16.0338C6.36232 16.5472 7.23597 17.0528 8.30054 17.4961C10.5656 18.4381 13.4441 19 16 19C18.5559 19 21.4344 18.437 23.6995 17.494C24.764 17.0507 25.6377 16.5451 26.2263 16.0317C26.725 15.5984 27 15.1735 27 14.8356V13.2131C27 13.1738 26.989 13.1352 26.9682 13.1018C26.9474 13.0684 26.9176 13.0414 26.8822 13.024C26.8469 13.0065 26.8073 12.9993 26.768 13.0031C26.7287 13.0069 26.6913 13.0216 26.66 13.0455C26.028 13.5289 25.2548 14.1425 24.3515 14.5194Z" fill="white"/>
  <path d="M24.3515 18.7883C21.8903 19.9926 18.7685 20.7117 16 20.7117C13.2315 20.7117 10.1092 19.9926 7.64794 18.7883C6.7452 18.3434 5.97202 17.6212 5.34005 17.051C5.30863 17.0229 5.2711 17.0056 5.23173 17.0011C5.19235 16.9967 5.1527 17.0053 5.11729 17.026C5.08188 17.0467 5.05211 17.0786 5.03138 17.1181C5.01065 17.1576 4.99978 17.2032 5 17.2496V19.0985C5 19.4962 5.275 19.9963 5.77318 20.5075C6.36178 21.1118 7.23597 21.7068 8.30053 22.2286C10.5656 23.3374 13.4436 24 16 24C18.5564 24 21.4344 23.3374 23.6995 22.2274C24.764 21.7056 25.6377 21.1106 26.2263 20.5063C26.725 19.9944 27 19.4937 27 19.0985V17.2496C27 17.2033 26.989 17.1579 26.9682 17.1186C26.9474 17.0792 26.9176 17.0475 26.8822 17.027C26.8469 17.0064 26.8073 16.9979 26.768 17.0024C26.7287 17.0069 26.6913 17.0242 26.66 17.0523C26.028 17.6212 25.2548 18.3434 24.3515 18.7883Z" fill="white"/>
  <path d="M3.31997 0.108123C3.36066 -0.0354192 3.61545 -0.0362796 3.65711 0.106984C3.84737 0.76119 4.20014 1.72818 4.73359 2.25804C5.26705 2.78791 6.2364 3.13414 6.89188 3.31997C7.03542 3.36066 7.03628 3.61545 6.89302 3.65711C6.23881 3.84736 5.27182 4.20014 4.74196 4.73359C4.21209 5.26705 3.86586 6.2364 3.68003 6.89188C3.63934 7.03542 3.38455 7.03628 3.34289 6.89302C3.15264 6.23881 2.79986 5.27182 2.26641 4.74196C1.73295 4.21209 0.763599 3.86586 0.108123 3.68003C-0.0354193 3.63934 -0.0362795 3.38455 0.106984 3.34289C0.76119 3.15263 1.72818 2.79986 2.25805 2.26641C2.78791 1.73295 3.13414 0.763599 3.31997 0.108123Z" fill="white"/>
  <path d="M3.42284 25.0463C3.44028 24.9848 3.54948 24.9845 3.56734 25.0459C3.64887 25.3262 3.80006 25.7406 4.02868 25.9677C4.25731 26.1948 4.67274 26.3432 4.95366 26.4228C5.01518 26.4403 5.01555 26.5495 4.95415 26.5673C4.67378 26.6489 4.25935 26.8001 4.03227 27.0287C3.80518 27.2573 3.6568 27.6727 3.57716 27.9537C3.55972 28.0152 3.45052 28.0155 3.43267 27.9541C3.35113 27.6738 3.19994 27.2594 2.97132 27.0323C2.74269 26.8052 2.32726 26.6568 2.04634 26.5772C1.98482 26.5597 1.98445 26.4505 2.04585 26.4327C2.32622 26.3511 2.74065 26.1999 2.96773 25.9713C3.19482 25.7427 3.3432 25.3273 3.42284 25.0463Z" fill="white"/>
  <path fill-rule="evenodd" clip-rule="evenodd" d="M29.75 9C30.1642 9 30.5 9.33579 30.5 9.75V10H30.75C31.1642 10 31.5 10.3358 31.5 10.75C31.5 11.1642 31.1642 11.5 30.75 11.5H30.5V11.75C30.5 12.1642 30.1642 12.5 29.75 12.5C29.3358 12.5 29 12.1642 29 11.75V11.5H28.75C28.3358 11.5 28 11.1642 28 10.75C28 10.3358 28.3358 10 28.75 10H29V9.75C29 9.33579 29.3358 9 29.75 9Z" fill="white"/>
</svg>