<svg xmlns="http://www.w3.org/2000/svg" width="36" height="36" viewBox="0 0 36 36" fill="none">
  <path d="M18.2033 3.37441C9.97816 3.26331 3.26331 9.97816 3.37441 18.2033C3.48409 26.0917 9.90714 32.5147 17.7955 32.6244C26.0221 32.7369 32.7355 26.0221 32.623 17.7969C32.5147 9.90714 26.0917 3.48409 18.2033 3.37441ZM17.9446 14.0696C17.9593 13.9853 17.9755 13.9009 17.9945 13.8172C18.1721 12.9961 18.5678 12.238 19.1399 11.6228C20.0462 10.6574 21.3308 10.1244 22.7575 10.1244C23.3577 10.1219 23.9538 10.2233 24.5195 10.4239C25.2227 10.6743 25.8559 11.0889 26.3666 11.6333C27.1178 12.4453 27.565 13.4921 27.6322 14.5963C27.6517 14.8631 27.6517 15.131 27.6322 15.3978C27.5781 16.1541 27.3825 16.8934 27.0557 17.5775C27.02 17.6521 26.9828 17.7259 26.9439 17.799C26.8658 17.9446 26.7821 18.0873 26.6921 18.2251C26.513 18.5002 26.3099 18.7591 26.0853 18.9985C25.1628 19.9829 23.9816 20.5264 22.7589 20.5264C22.3004 20.5261 21.845 20.4506 21.411 20.3028C21.2651 20.2533 21.122 20.1963 20.9821 20.132C20.3961 19.8586 19.869 19.4736 19.4303 18.9985C18.5171 18.0081 17.9711 16.7344 17.8834 15.3901C17.8707 15.2082 17.8665 15.0282 17.8707 14.8501C17.8762 14.589 17.9009 14.3286 17.9446 14.071V14.0696ZM7.41667 15.781C7.45089 15.2793 7.57472 14.7878 7.7823 14.3298C7.84085 14.2022 7.9061 14.0778 7.97777 13.9571C8.1211 13.7152 8.29064 13.4898 8.48331 13.285C8.76874 12.9805 9.10107 12.7236 9.46769 12.5242C9.65079 12.4241 9.84145 12.3385 10.0379 12.2682C10.7908 12.0049 11.6002 11.9469 12.3828 12.1002C13.2122 12.2606 13.9696 12.6789 14.5471 13.2955C15.2322 14.0351 15.6184 15.0028 15.6306 16.011C15.6341 16.1593 15.6306 16.3084 15.62 16.4596C15.5771 17.0385 15.4344 17.6056 15.1982 18.1358C15.085 18.3911 14.9502 18.6362 14.7953 18.8685C14.4972 19.3189 14.1221 19.7133 13.6871 20.0335C13.5817 20.1088 13.472 20.1791 13.3588 20.2494C13.1361 20.382 12.9005 20.4916 12.6557 20.5764C12.2895 20.7043 11.9045 20.7699 11.5166 20.7704C11.4512 20.7704 11.3858 20.7704 11.3211 20.7648C11.192 20.7577 11.0633 20.7432 10.9358 20.7212C10.809 20.6991 10.6834 20.6703 10.5596 20.6347C10.3737 20.581 10.1923 20.5131 10.0168 20.4315C9.95777 20.4041 9.90011 20.3753 9.84245 20.345C8.57683 19.6778 7.62269 18.2947 7.43566 16.6803C7.42722 16.6065 7.42019 16.5327 7.41527 16.4582C7.39939 16.2327 7.39986 16.0064 7.41667 15.781ZM11.2079 28.3389C9.33582 27.1049 7.83125 25.3887 6.85277 23.3713C6.82081 23.3068 6.81481 23.2325 6.836 23.1637C6.85719 23.0948 6.90396 23.0368 6.96667 23.0014C8.27308 22.2667 9.94159 21.8666 11.518 21.8666C12.7133 21.8666 13.6766 22.0072 14.5196 22.28C14.6152 22.3115 14.7006 22.368 14.7669 22.4437C14.8332 22.5194 14.878 22.6115 14.8966 22.7104C14.9152 22.8092 14.9069 22.9113 14.8727 23.0059C14.8384 23.1005 14.7794 23.1842 14.7018 23.2482C13.06 24.5842 12.0017 26.2393 11.5046 28.2228C11.4972 28.2532 11.4826 28.2813 11.462 28.3048C11.4414 28.3283 11.4155 28.3465 11.3864 28.3579C11.3573 28.3692 11.3259 28.3735 11.2948 28.3702C11.2638 28.3668 11.234 28.3561 11.2079 28.3389ZM17.9994 30.3744C16.4164 30.376 14.8479 30.0723 13.3799 29.48C13.3199 29.4553 13.2703 29.4105 13.2395 29.3533C13.2088 29.2962 13.1987 29.2302 13.2111 29.1664C13.2392 29.0223 13.2702 28.8908 13.2976 28.7811C13.7982 26.7821 15.0385 25.1249 16.8835 23.9872C18.5211 22.9782 20.6101 22.4228 22.756 22.4228C24.947 22.4228 26.9748 22.9557 28.6257 23.9633C28.6678 23.9896 28.698 24.0313 28.7099 24.0794C28.7218 24.1275 28.7146 24.1784 28.6897 24.2214C27.601 26.0918 26.041 27.6442 24.1653 28.7238C22.2896 29.8034 20.1636 30.3725 17.9994 30.3744Z" fill="white"/>
  <path d="M11.3209 20.7623C11.1917 20.7553 11.063 20.7407 10.9355 20.7188C11.063 20.7407 11.1917 20.7553 11.3209 20.7623Z" fill="#022334"/>
  <path d="M9.46648 12.5254C9.09987 12.7248 8.76754 12.9817 8.48211 13.2862C8.28944 13.491 8.1199 13.7164 7.97656 13.9584C8.1199 13.7164 8.28944 13.491 8.48211 13.2862C8.76754 12.9817 9.09987 12.7248 9.46648 12.5254Z" fill="#022334"/>
  <path d="M15.1992 18.1327C15.4355 17.6024 15.5782 17.0353 15.6211 16.4564C15.6316 16.3052 15.6352 16.1562 15.6316 16.0078C15.6354 16.1555 15.6319 16.305 15.6211 16.4564C15.5782 17.0353 15.4355 17.6024 15.1992 18.1327Z" fill="#022334"/>
  <path d="M9.4668 12.5255C9.6499 12.4254 9.84056 12.3398 10.037 12.2695C9.84056 12.3398 9.6499 12.4254 9.4668 12.5255Z" fill="#022334"/>
  <path d="M10.5623 20.6309C10.3765 20.5773 10.195 20.5093 10.0195 20.4277C10.195 20.5093 10.3765 20.5773 10.5623 20.6309Z" fill="#022334"/>
  <path d="M7.4375 16.6777C7.62453 18.2949 8.58078 19.6752 9.8443 20.3424C8.57797 19.6752 7.62453 18.2921 7.4375 16.6777Z" fill="#022334"/>
  <path d="M17.8834 15.3994C17.9711 16.7437 18.5171 18.0173 19.4303 19.0078C19.8689 19.4829 20.396 19.8679 20.9821 20.1412C20.396 19.8679 19.8689 19.4829 19.4303 19.0078C18.5171 18.0173 17.9711 16.7437 17.8834 15.3994C17.8707 15.2175 17.8665 15.0375 17.8707 14.8594C17.8665 15.0352 17.8707 15.2152 17.8834 15.3994Z" fill="#022334"/>
  <path d="M21.4094 20.3076C21.2636 20.2581 21.1204 20.201 20.9805 20.1367C21.1204 20.201 21.2636 20.2581 21.4094 20.3076Z" fill="#022334"/>
  <path d="M17.9941 13.8195C18.1717 12.9983 18.5674 12.2402 19.1395 11.625C18.5674 12.2402 18.1717 12.9983 17.9941 13.8195Z" fill="#022334"/>
  <path d="M26.3666 11.6332C27.1179 12.4452 27.565 13.492 27.6323 14.5962C27.565 13.492 27.1179 12.4452 26.3666 11.6332C25.856 11.0888 25.2227 10.6742 24.5195 10.4238C25.2227 10.6742 25.856 11.0888 26.3666 11.6332Z" fill="#022334"/>
  <path d="M27.6332 15.3984C27.5791 16.1547 27.3835 16.894 27.0566 17.5781C27.3835 16.894 27.5791 16.1547 27.6332 15.3984Z" fill="#022334"/>
  <path d="M17.8711 14.8555C17.8766 14.593 17.9015 14.3312 17.9456 14.0723C17.9015 14.3312 17.8766 14.593 17.8711 14.8555Z" fill="#022334"/>
  <path d="M26.9431 17.8008C26.8651 17.9463 26.7814 18.0891 26.6914 18.2269C26.7814 18.0891 26.8651 17.9463 26.9431 17.8008Z" fill="#022334"/>
  <path d="M14.547 13.293C15.2322 14.0326 15.6183 15.0003 15.6305 16.0084C15.6183 15.0003 15.2322 14.0326 14.547 13.293C13.9696 12.6764 13.2122 12.2581 12.3828 12.0977C13.2122 12.2581 13.9696 12.6764 14.547 13.293Z" fill="#022334"/>
  <path d="M13.3594 20.25C13.1367 20.3826 12.9011 20.4922 12.6562 20.577C12.9011 20.4922 13.1367 20.3826 13.3594 20.25Z" fill="#022334"/>
  <path d="M7.41797 15.7813C7.45218 15.2796 7.57602 14.7881 7.78359 14.3301C7.57602 14.7881 7.45218 15.2796 7.41797 15.7813Z" fill="#022334"/>
  <path d="M13.6884 20.0312C13.5823 20.11 13.4726 20.1803 13.3594 20.2506C13.4726 20.1803 13.5823 20.11 13.6884 20.0312Z" fill="#022334"/>
  <path d="M15.1998 18.1328C15.0866 18.3881 14.9519 18.6332 14.7969 18.8655C14.9519 18.6332 15.0866 18.3881 15.1998 18.1328Z" fill="#022334"/>
  <path d="M7.7832 14.3297C7.84176 14.2021 7.90701 14.0777 7.97867 13.957C7.90701 14.0777 7.84176 14.2021 7.7832 14.3297Z" fill="#022334"/>
  <path d="M13.6875 20.0303C14.1224 19.7101 14.4976 19.3157 14.7956 18.8652C14.4976 19.3157 14.1224 19.7101 13.6875 20.0303Z" fill="#022334"/>
</svg>