<svg xmlns="http://www.w3.org/2000/svg" width="32" height="32" viewBox="0 0 32 32" fill="none">
  <path fill-rule="evenodd" clip-rule="evenodd" d="M4.61864 27.3801C6.57126 29.3327 9.71395 29.3327 15.9993 29.3327C22.2847 29.3327 25.4274 29.3327 27.3801 27.3801C29.3327 25.4274 29.3327 22.2847 29.3327 15.9993C29.3327 9.71395 29.3327 6.57126 27.3801 4.61864C25.4274 2.66602 22.2847 2.66602 15.9993 2.66602C9.71395 2.66602 6.57126 2.66602 4.61864 4.61864C2.66602 6.57126 2.66602 9.71395 2.66602 15.9993C2.66602 22.2847 2.66602 25.4274 4.61864 27.3801ZM12.666 11.666C10.2728 11.666 8.33268 13.6061 8.33268 15.9993C8.33268 18.3926 10.2728 20.3327 12.666 20.3327C15.0592 20.3327 16.9993 18.3926 16.9993 15.9993C16.9993 15.4471 17.4471 14.9993 17.9993 14.9993C18.5516 14.9993 18.9993 15.4471 18.9993 15.9993C18.9993 19.4972 16.1638 22.3327 12.666 22.3327C9.16821 22.3327 6.33268 19.4972 6.33268 15.9993C6.33268 12.5015 9.16821 9.66602 12.666 9.66602C13.2183 9.66602 13.666 10.1137 13.666 10.666C13.666 11.2183 13.2183 11.666 12.666 11.666ZM23.666 15.9993C23.666 18.3926 21.7259 20.3327 19.3327 20.3327C18.7804 20.3327 18.3327 20.7804 18.3327 21.3327C18.3327 21.885 18.7804 22.3327 19.3327 22.3327C22.8305 22.3327 25.666 19.4972 25.666 15.9993C25.666 12.5015 22.8305 9.66602 19.3327 9.66602C15.8349 9.66602 12.9993 12.5015 12.9993 15.9993C12.9993 16.5516 13.4471 16.9993 13.9993 16.9993C14.5516 16.9993 14.9993 16.5516 14.9993 15.9993C14.9993 13.6061 16.9394 11.666 19.3327 11.666C21.7259 11.666 23.666 13.6061 23.666 15.9993Z" fill="white"/>
</svg>