<svg xmlns="http://www.w3.org/2000/svg" width="36" height="36" viewBox="0 0 36 36" fill="none">
  <path d="M34 8.85713C34 7.64469 33.5184 6.48192 32.6611 5.6246C31.8038 4.76728 30.641 4.28564 29.4286 4.28564H28.2857V3.17491C28.2857 2.5599 27.8129 2.03204 27.1979 2.00132C27.0433 1.99388 26.8889 2.01788 26.7439 2.07189C26.599 2.12589 26.4665 2.20876 26.3545 2.31549C26.2425 2.42221 26.1533 2.55056 26.0924 2.69277C26.0314 2.83497 26 2.98806 26 3.14277V4.28564H10V3.17491C10 2.5599 9.52714 2.03204 8.91214 2.00132C8.75762 1.99388 8.60319 2.01788 8.45822 2.07189C8.31324 2.12589 8.18074 2.20876 8.06874 2.31549C7.95675 2.42221 7.86758 2.55056 7.80665 2.69277C7.74572 2.83497 7.7143 2.98806 7.71429 3.14277V4.28564H6.57143C5.35901 4.28564 4.19625 4.76728 3.33894 5.6246C2.48163 6.48192 2 7.64469 2 8.85713V9.71428C2 9.79006 2.0301 9.86273 2.08368 9.91632C2.13727 9.9699 2.20994 10 2.28571 10H33.7143C33.7901 10 33.8627 9.9699 33.9163 9.91632C33.9699 9.86273 34 9.79006 34 9.71428V8.85713Z" fill="white"/>
  <path fill-rule="evenodd" clip-rule="evenodd" d="M3.33894 32.6605C2.48163 31.8032 2 30.6405 2 29.428V12.5709C2 12.4951 2.0301 12.4224 2.08368 12.3688C2.13727 12.3153 2.20994 12.2852 2.28571 12.2852H33.7143C33.7901 12.2852 33.8628 12.3153 33.9164 12.3688C33.9699 12.4224 34 12.4951 34 12.5709V29.428C34 30.6405 33.5184 31.8032 32.6611 32.6605C31.8038 33.5178 30.641 33.9995 29.4286 33.9995H6.57144C5.35902 33.9995 4.19625 33.5178 3.33894 32.6605ZM26.6423 17.3559C27.0055 16.9597 26.9626 16.3581 26.5466 16.0121C26.1306 15.6662 25.4988 15.707 25.1356 16.1032L15.4128 26.71L11.9756 22.9604C11.6124 22.5642 10.9807 22.5234 10.5646 22.8693C10.1486 23.2152 10.1057 23.8168 10.469 24.2131L14.6594 28.7845C14.8493 28.9917 15.124 29.1105 15.4128 29.1105C15.7015 29.1105 15.9762 28.9917 16.1661 28.7845L26.6423 17.3559Z" fill="white"/>
</svg>