<svg xmlns="http://www.w3.org/2000/svg" width="36" height="36" viewBox="0 0 36 36" fill="none">
  <path fill-rule="evenodd" clip-rule="evenodd" d="M18 33.0977C9.7155 33.0977 3 26.3822 3 18.0977C3 9.81316 9.7155 3.09766 18 3.09766C26.2845 3.09766 33 9.81316 33 18.0977C33 26.3822 26.2845 33.0977 18 33.0977ZM19.0326 24.1335C18.9055 24.1335 18.8015 24.093 18.7206 24.0122C18.6397 23.9313 18.5992 23.8273 18.5992 23.7002V12.4335C18.5992 12.3064 18.6397 12.2024 18.7206 12.1215C18.8015 12.0406 18.9055 12.0002 19.0326 12.0002H20.9219C21.049 12.0002 21.153 12.0406 21.2339 12.1215C21.3148 12.2024 21.3552 12.3064 21.3552 12.4335V16.7668H26.0526V12.4335C26.0526 12.3064 26.093 12.2024 26.1739 12.1215C26.2548 12.0406 26.3588 12.0002 26.4859 12.0002H28.3752C28.5024 12.0002 28.6064 12.0406 28.6872 12.1215C28.7681 12.2024 28.8086 12.3064 28.8086 12.4335V23.7002C28.8086 23.8273 28.7681 23.9313 28.6872 24.0122C28.6064 24.093 28.5024 24.1335 28.3752 24.1335H26.4859C26.3588 24.1335 26.2548 24.093 26.1739 24.0122C26.093 23.9313 26.0526 23.8273 26.0526 23.7002V19.2282H21.3552V23.7002C21.3552 23.8273 21.3148 23.9313 21.2339 24.0122C21.153 24.093 21.049 24.1335 20.9219 24.1335H19.0326ZM10.692 24.0122C10.7729 24.093 10.8769 24.1335 11.004 24.1335H12.928C13.0551 24.1335 13.1591 24.093 13.24 24.0122C13.3209 23.9313 13.3613 23.8273 13.3613 23.7002V14.4095H16.4987C16.6258 14.4095 16.7298 14.369 16.8107 14.2882C16.8916 14.2073 16.932 14.109 16.932 13.9935V12.4335C16.932 12.3064 16.8916 12.2024 16.8107 12.1215C16.7298 12.0406 16.6258 12.0002 16.4987 12.0002H7.416C7.30044 12.0002 7.20222 12.0406 7.12133 12.1215C7.04044 12.2024 7 12.3064 7 12.4335V13.9935C7 14.109 7.04044 14.2073 7.12133 14.2882C7.20222 14.369 7.30044 14.4095 7.416 14.4095H10.5707V23.7002C10.5707 23.8273 10.6111 23.9313 10.692 24.0122Z" fill="white"/>
  <circle cx="18" cy="18" r="16.5" stroke="white"/>
</svg>