<svg xmlns="http://www.w3.org/2000/svg" width="36" height="36" viewBox="0 0 36 36" fill="none">
  <path d="M25.0314 30.3046C25.7239 30.3046 26.4096 30.1682 27.0493 29.9032C27.6891 29.6382 28.2704 29.2497 28.7601 28.7601C29.2497 28.2704 29.6382 27.6891 29.9032 27.0493C30.1682 26.4096 30.3046 25.7239 30.3046 25.0314C30.3046 24.3389 30.1682 23.6532 29.9032 23.0134C29.6382 22.3736 29.2497 21.7923 28.7601 21.3027C28.2704 20.813 27.6891 20.4246 27.0493 20.1596C26.4096 19.8946 25.7239 19.7582 25.0314 19.7582C23.6328 19.7582 22.2916 20.3137 21.3027 21.3027C20.3137 22.2916 19.7582 23.6328 19.7582 25.0314C19.7582 26.4299 20.3137 27.7712 21.3027 28.7601C22.2916 29.749 23.6328 30.3046 25.0314 30.3046ZM30.5858 29.3431L33.7322 32.4894C33.816 32.5705 33.8829 32.6676 33.9289 32.7748C33.9749 32.8821 33.999 32.9974 34 33.1141C34.0009 33.2308 33.9786 33.3465 33.9343 33.4545C33.8901 33.5625 33.8247 33.6606 33.7421 33.743C33.6596 33.8255 33.5614 33.8907 33.4534 33.9348C33.3453 33.9789 33.2296 34.0011 33.1129 34C32.9962 33.9989 32.8809 33.9745 32.7737 33.9284C32.6665 33.8823 32.5696 33.8153 32.4886 33.7313L29.3422 30.5849C27.9294 31.6816 26.1517 32.1987 24.3711 32.0308C22.5905 31.863 20.9408 31.0229 19.7578 29.6815C18.5748 28.3401 17.9474 26.5983 18.0035 24.8107C18.0595 23.0231 18.7946 21.324 20.0593 20.0593C21.324 18.7946 23.0231 18.0595 24.8107 18.0035C26.5983 17.9474 28.3401 18.5748 29.6815 19.7578C31.0229 20.9408 31.863 22.5905 32.0308 24.3711C32.1987 26.1517 31.6816 27.9294 30.5849 29.3422L30.5858 29.3431Z" fill="white"/>
  <path fill-rule="evenodd" clip-rule="evenodd" d="M21.338 3.08179C23.0334 3.79139 24.5719 4.82898 25.865 6.13496C27.171 7.42815 28.2086 8.96663 28.9182 10.662C29.6278 12.3574 29.9954 14.1763 30 16.0142C30.0012 16.5005 29.9769 16.9857 29.9276 17.4676C29.3147 17.0658 28.6498 16.7368 27.9451 16.4929C27.9763 16.0312 27.9638 15.5674 27.9073 15.1075C27.9028 15.0778 27.8877 15.0507 27.8648 15.0312C27.8419 15.0118 27.8128 15.0013 27.7827 15.0016L24.2563 15.006C24.1873 15.0056 24.1211 14.9787 24.0712 14.931C24.0214 14.8833 23.9918 14.8183 23.9884 14.7494C23.9027 13.0312 23.6132 11.3293 23.1258 9.6795C23.1076 9.61886 23.1112 9.55376 23.136 9.4955C23.1609 9.43725 23.2053 9.38952 23.2616 9.36061C23.889 9.04338 24.4938 8.68315 25.0716 8.28249C24.6366 7.76006 24.1528 7.28037 23.6266 6.84997C23.3071 7.05987 22.944 7.26852 22.6089 7.44976C22.5769 7.46704 22.5418 7.47763 22.5056 7.48088C22.4695 7.48413 22.433 7.47997 22.3985 7.46866C22.364 7.45736 22.3322 7.43913 22.3049 7.41511C22.2777 7.39108 22.2557 7.36176 22.2402 7.32893C22.0957 7.02063 21.9244 6.66499 21.7631 6.37475C21.5361 5.96674 21.2865 5.57167 21.0157 5.19137C19.4816 4.47761 17.8025 4.04162 16 4.04162C14.2833 4.03331 12.5865 4.40868 11.0335 5.1403C10.7514 5.53955 10.4907 5.95349 10.2525 6.38036C10.1242 6.61081 9.99216 6.87925 9.87507 7.12028C9.84575 7.18081 9.80432 7.23468 9.75334 7.27855C9.70236 7.32242 9.64292 7.35536 9.5787 7.37533C9.51447 7.3953 9.44683 7.40187 9.37996 7.39464C9.3131 7.38741 9.24843 7.36653 9.18995 7.33329C8.92463 7.18381 8.59328 6.99509 8.33917 6.82817C7.81448 7.25438 7.33186 7.72991 6.89793 8.24823C7.49191 8.66084 8.11281 9.0333 8.75646 9.3631C8.81269 9.39199 8.85707 9.43958 8.88197 9.49767C8.90687 9.55577 8.91072 9.62074 8.89286 9.68137C8.41332 11.3425 8.12085 13.052 8.0209 14.778C8.01342 14.9219 7.89633 15.0041 7.7537 15.0041H4.21975C4.18971 15.0038 4.16056 15.0143 4.13767 15.0337C4.11478 15.0532 4.09969 15.0803 4.09519 15.11C4.05527 15.4049 4.03736 15.7024 4.04162 16C4.03731 16.2982 4.0548 16.5963 4.09394 16.8919C4.09845 16.9216 4.11353 16.9487 4.13642 16.9681C4.15932 16.9876 4.18847 16.9981 4.21851 16.9978H7.75246C7.82183 16.9987 7.88822 17.0261 7.93803 17.0744C7.98783 17.1227 8.01726 17.1882 8.02028 17.2575C8.12157 18.9908 8.41591 20.7073 8.89785 22.3753C8.93459 22.5024 8.87791 22.5734 8.76207 22.6357C8.10429 22.9712 7.47133 23.3534 6.86804 23.7792C7.30428 24.2976 7.79662 24.7662 8.33605 25.1762C8.59328 25.0074 8.94829 24.8012 9.21611 24.6511C9.2705 24.6189 9.33102 24.5984 9.3938 24.5909C9.45658 24.5834 9.52024 24.5891 9.58069 24.6076C9.64114 24.6261 9.69705 24.6571 9.74485 24.6985C9.79264 24.7399 9.83127 24.7908 9.85825 24.848C9.97597 25.089 10.1529 25.4359 10.2774 25.6657C10.5146 26.0874 10.7741 26.4961 11.0547 26.8902C12.5887 27.6077 14.1975 27.9584 16 27.9584C16.1664 27.9584 16.3311 27.9554 16.4944 27.9494C16.7382 28.6525 17.0666 29.316 17.4676 29.9276C16.9857 29.9769 16.5005 30.0012 16.0142 30C14.1763 29.9954 12.3574 29.6278 10.662 28.9182C8.96663 28.2086 7.42815 27.171 6.13496 25.865C4.82898 24.5719 3.79139 23.0334 3.08179 21.338C2.37219 19.6426 2.00457 17.8237 2.00004 15.9858C1.99552 14.1479 2.35418 12.3272 3.05543 10.6283C3.75668 8.92945 4.78668 7.38588 6.08628 6.08628C7.38588 4.78668 8.92945 3.75668 10.6283 3.05543C12.3272 2.35418 14.1479 1.99552 15.9858 2.00004C17.8237 2.00457 19.6426 2.37219 21.338 3.08179ZM20.8795 16.9965C19.2345 17.8452 17.8848 19.1861 17.0252 20.8245C17.0097 20.7901 17.0013 20.7526 17.0009 20.7142V17.27C17.0012 17.2337 17.0087 17.1979 17.0228 17.1646C17.037 17.1312 17.0576 17.101 17.0835 17.0756C17.1093 17.0502 17.1399 17.0301 17.1735 17.0166C17.2071 17.003 17.2431 16.9962 17.2793 16.9965H20.8795ZM20.2041 8.44131C19.2603 8.72784 18.29 8.91856 17.3079 9.01058C17.27 9.01473 17.2315 9.01094 17.1951 8.99946C17.1586 8.98797 17.1249 8.96904 17.0962 8.94386C17.0674 8.91869 17.0442 8.88781 17.028 8.85319C17.0119 8.81857 17.003 8.78097 17.0021 8.74276V4.68003C17.0038 4.63163 17.0181 4.58451 17.0435 4.54328C17.0689 4.50206 17.1046 4.46816 17.147 4.44491C17.1895 4.42166 17.2373 4.40986 17.2857 4.41068C17.3341 4.4115 17.3815 4.42491 17.4232 4.44958C18.3636 4.98833 19.2263 5.94438 19.9917 7.31461C20.0839 7.48008 20.1981 7.70984 20.2967 7.90842C20.3247 7.96471 20.3514 8.0185 20.376 8.06761C20.3929 8.10304 20.4018 8.14174 20.402 8.18098C20.4023 8.22023 20.3939 8.25904 20.3775 8.2947C20.3611 8.33035 20.3371 8.36196 20.3071 8.38729C20.2772 8.41263 20.242 8.43107 20.2041 8.44131ZM11.8102 23.55C12.7579 23.2779 13.7286 23.094 14.7101 23.0006C14.7468 22.9951 14.7843 22.9975 14.82 23.0077C14.8556 23.0179 14.8887 23.0357 14.917 23.0598C14.9452 23.0839 14.9679 23.1137 14.9836 23.1474C14.9993 23.181 15.0075 23.2176 15.0078 23.2547V27.32C15.0063 27.3684 14.9922 27.4157 14.9668 27.457C14.9415 27.4984 14.9058 27.5323 14.8632 27.5556C14.8207 27.5789 14.7728 27.5907 14.7243 27.5898C14.6758 27.5888 14.6284 27.5753 14.5868 27.5504C13.6899 27.0254 12.8279 26.1223 12.0182 24.6898C11.9269 24.5255 11.8237 24.3182 11.7299 24.13L11.7299 24.13L11.7299 24.13L11.7299 24.1299L11.7299 24.1299L11.7298 24.1299L11.7298 24.1299C11.7027 24.0754 11.6764 24.0226 11.6514 23.9729C11.5766 23.824 11.6458 23.5973 11.8102 23.55ZM14.7294 16.9965H10.3036C10.266 16.9961 10.2287 17.0033 10.1941 17.0178C10.1594 17.0323 10.1281 17.0537 10.1021 17.0808C10.076 17.1079 10.0558 17.1401 10.0427 17.1753C10.0296 17.2105 10.0238 17.248 10.0258 17.2855C10.118 18.7218 10.3603 20.2228 10.7271 21.5108C10.7375 21.5461 10.7548 21.5789 10.778 21.6074C10.8012 21.6359 10.8298 21.6596 10.8622 21.6769C10.8946 21.6943 10.9301 21.7051 10.9666 21.7087C11.0032 21.7122 11.0401 21.7085 11.0753 21.6977C12.2703 21.3269 13.5027 21.0896 14.75 20.9901C14.8195 20.9856 14.8848 20.955 14.9327 20.9044C14.9806 20.8538 15.0077 20.787 15.0085 20.7173V17.2706C15.0082 17.2342 15.0008 17.1983 14.9866 17.1648C14.9724 17.1314 14.9518 17.101 14.9259 17.0756C14.9 17.0501 14.8692 17.03 14.8355 17.0165C14.8018 17.0029 14.7658 16.9961 14.7294 16.9965ZM17.2793 15.0035H21.7051C21.7424 15.0041 21.7795 14.9971 21.8139 14.9829C21.8484 14.9687 21.8796 14.9476 21.9056 14.9208C21.9317 14.8941 21.9519 14.8624 21.9652 14.8275C21.9785 14.7927 21.9845 14.7555 21.9829 14.7182C21.8907 13.3 21.6547 11.7411 21.2878 10.4693C21.2771 10.4343 21.2596 10.4018 21.2363 10.3736C21.2129 10.3454 21.1843 10.3221 21.1519 10.3051C21.1196 10.288 21.0842 10.2775 21.0478 10.2741C21.0113 10.2708 20.9746 10.2746 20.9397 10.2855C19.7563 10.643 18.5237 10.9351 17.2594 11.0329C17.1903 11.0368 17.1252 11.0668 17.0773 11.1167C17.0293 11.1666 17.002 11.2328 17.0009 11.302V14.7344C17.0022 14.807 17.0323 14.8761 17.0844 14.9265C17.1366 14.977 17.2067 15.0046 17.2793 15.0035ZM12.0039 7.33827C12.77 5.97178 13.6264 4.98397 14.5868 4.4502C14.6285 4.42602 14.6757 4.41301 14.7238 4.41244C14.772 4.41187 14.8195 4.42375 14.8617 4.44693C14.904 4.47011 14.9395 4.50381 14.9649 4.54476C14.9902 4.58571 15.0046 4.63252 15.0066 4.68065V8.74276C15.0056 8.78091 14.9967 8.81845 14.9805 8.85299C14.9643 8.88754 14.941 8.91834 14.9123 8.94345C14.8836 8.96856 14.8499 8.98744 14.8135 8.99889C14.7771 9.01033 14.7387 9.0141 14.7008 9.00996C13.7172 8.92205 12.7456 8.73061 11.8021 8.43882C11.7643 8.42848 11.7292 8.40999 11.6993 8.38463C11.6694 8.35928 11.6454 8.32768 11.629 8.29206C11.6126 8.25644 11.6042 8.21766 11.6044 8.17846C11.6047 8.13925 11.6134 8.10056 11.6302 8.06512C11.6602 8.00606 11.6923 7.94195 11.7255 7.87567L11.7259 7.87492L11.726 7.87467C11.8173 7.69241 11.9168 7.4938 12.0039 7.33827ZM14.7494 11.0335C13.485 10.937 12.2512 10.6449 11.069 10.2861C11.0341 10.2753 10.9974 10.2714 10.961 10.2747C10.9245 10.2781 10.8891 10.2886 10.8568 10.3057C10.8244 10.3228 10.7958 10.346 10.7725 10.3742C10.7491 10.4024 10.7316 10.4349 10.7209 10.4699C10.354 11.7417 10.118 13.3006 10.0258 14.7188C10.0242 14.7561 10.0302 14.7933 10.0435 14.8281C10.0568 14.863 10.0771 14.8947 10.1031 14.9215C10.1291 14.9482 10.1603 14.9693 10.1948 14.9835C10.2293 14.9977 10.2663 15.0047 10.3036 15.0041H14.7294C14.7655 15.0047 14.8013 14.9981 14.8348 14.9848C14.8683 14.9716 14.8988 14.9518 14.9247 14.9267C14.9506 14.9016 14.9712 14.8716 14.9855 14.8385C14.9998 14.8054 15.0073 14.7698 15.0078 14.7338V11.3026C15.0067 11.2334 14.9794 11.1672 14.9314 11.1173C14.8835 11.0674 14.8185 11.0375 14.7494 11.0335Z" fill="white"/>
</svg>