<svg xmlns="http://www.w3.org/2000/svg" width="36" height="36" viewBox="0 0 36 36" fill="none">
<path fill-rule="evenodd" clip-rule="evenodd" d="M30.9216 1.19579C30.4508 0.999815 29.9458 0.899404 29.4358 0.900398L21.2872 0.900396L21.2856 0.900399C20.514 0.901838 19.7742 1.20746 19.2266 1.75096L19.2243 1.75328L2.93257 18.0415L2.93185 18.0422C2.20756 18.768 1.80078 19.7514 1.80078 20.7768C1.80078 21.8021 2.20756 22.7856 2.93185 23.5114L2.9325 23.512L8.70704 29.2865C7.92771 28.1175 7.41461 26.7559 7.25438 25.2883L4.20594 22.2399C3.81842 21.8516 3.60078 21.3254 3.60078 20.7768C3.60078 20.2282 3.8184 19.7021 4.20588 19.3138L4.20594 19.3137L20.4946 3.02853L20.4956 3.02749C20.7066 2.81863 20.9913 2.70114 21.2882 2.7004H29.4367L29.4387 2.7004C29.7103 2.69979 29.9792 2.75322 30.2299 2.85757C30.4806 2.96192 30.708 3.1151 30.8989 3.3082L31.5389 2.67547L30.9034 3.31274C31.0943 3.50308 31.2454 3.72947 31.3479 3.97875C31.4505 4.22802 31.5024 4.4952 31.5007 4.76474H31.5007V4.77033V12.923C31.4996 13.2198 31.3816 13.5043 31.1722 13.7147L31.1717 13.7152L24.369 20.5164C24.6489 21.1196 24.864 21.759 25.0052 22.4257L32.4457 14.9868L32.447 14.9855C32.9918 14.4386 33.2986 13.6988 33.3007 12.9269L33.3007 12.9244V4.77296C33.3035 4.26574 33.2055 3.76302 33.0126 3.29392C32.8196 2.82491 32.5355 2.39887 32.1767 2.04048C31.8184 1.67862 31.3918 1.39151 30.9216 1.19579ZM25.7982 6.96662C26.0352 6.91949 26.2808 6.94368 26.5039 7.03612C26.7271 7.12857 26.9179 7.28512 27.0521 7.48597C27.1863 7.68683 27.2579 7.92297 27.2579 8.16453C27.2579 8.48845 27.1292 8.79911 26.9002 9.02817C26.6711 9.25722 26.3605 9.38591 26.0365 9.38591C25.795 9.38591 25.5588 9.31427 25.3579 9.18006C25.1571 9.04586 25.0005 8.8551 24.9081 8.63193C24.8157 8.40875 24.7915 8.16317 24.8386 7.92625C24.8857 7.68933 25.002 7.4717 25.1729 7.30089C25.3437 7.13007 25.5613 7.01375 25.7982 6.96662ZM27.1928 5.37314C26.6407 5.14446 26.0332 5.08463 25.4471 5.20121C24.861 5.31779 24.3226 5.60554 23.9001 6.02809C23.4775 6.45063 23.1898 6.98899 23.0732 7.57508C22.9566 8.16118 23.0164 8.76868 23.2451 9.32076C23.4738 9.87285 23.8611 10.3447 24.3579 10.6767C24.8548 11.0087 25.4389 11.1859 26.0365 11.1859C26.8378 11.1859 27.6063 10.8676 28.173 10.301C28.7396 9.73435 29.0579 8.96585 29.0579 8.16453C29.0579 7.56695 28.8807 6.9828 28.5487 6.48594C28.2167 5.98908 27.7449 5.60182 27.1928 5.37314Z" fill="white"/>
<path d="M16.2005 29.7001C16.9096 29.7001 17.6118 29.5604 18.2669 29.289C18.9221 29.0176 19.5174 28.6199 20.0188 28.1184C20.5203 27.617 20.918 27.0217 21.1894 26.3666C21.4608 25.7114 21.6005 25.0092 21.6005 24.3001C21.6005 23.5909 21.4608 22.8887 21.1894 22.2336C20.918 21.5784 20.5203 20.9831 20.0188 20.4817C19.5174 19.9802 18.9221 19.5825 18.2669 19.3111C17.6118 19.0397 16.9096 18.9001 16.2005 18.9001C14.7683 18.9001 13.3948 19.469 12.3821 20.4817C11.3694 21.4944 10.8005 22.8679 10.8005 24.3001C10.8005 25.7322 11.3694 27.1057 12.3821 28.1184C13.3948 29.1311 14.7683 29.7001 16.2005 29.7001ZM21.8885 28.7155L25.1105 31.9375C25.1964 32.0205 25.2648 32.1199 25.3119 32.2297C25.359 32.3396 25.3838 32.4577 25.3847 32.5772C25.3857 32.6967 25.3628 32.8152 25.3175 32.9258C25.2722 33.0363 25.2053 33.1368 25.1207 33.2212C25.0361 33.3057 24.9356 33.3724 24.825 33.4176C24.7143 33.4628 24.5958 33.4855 24.4763 33.4843C24.3568 33.4832 24.2387 33.4583 24.1289 33.4111C24.0192 33.3638 23.9199 33.2952 23.837 33.2092L20.615 29.9872C19.1682 31.1102 17.3478 31.6397 15.5243 31.4678C13.7009 31.296 12.0115 30.4356 10.8 29.062C9.5886 27.6884 8.94617 25.9047 9.00354 24.0741C9.0609 22.2435 9.81376 20.5035 11.1088 19.2084C12.4039 17.9134 14.1439 17.1605 15.9745 17.1031C17.8051 17.0458 19.5888 17.6882 20.9624 18.8997C22.336 20.1111 23.1964 21.8005 23.3682 23.6239C23.5401 25.4474 23.0106 27.2678 21.8876 28.7146L21.8885 28.7155Z" fill="white"/>
<path d="M16.2005 29.7001C16.9096 29.7001 17.6118 29.5604 18.2669 29.289C18.9221 29.0176 19.5174 28.6199 20.0188 28.1184C20.5203 27.617 20.918 27.0217 21.1894 26.3666C21.4608 25.7114 21.6005 25.0092 21.6005 24.3001C21.6005 23.5909 21.4608 22.8887 21.1894 22.2336C20.918 21.5784 20.5203 20.9831 20.0188 20.4817C19.5174 19.9802 18.9221 19.5825 18.2669 19.3111C17.6118 19.0397 16.9096 18.9001 16.2005 18.9001C14.7683 18.9001 13.3948 19.469 12.3821 20.4817C11.3694 21.4944 10.8005 22.8679 10.8005 24.3001C10.8005 25.7322 11.3694 27.1057 12.3821 28.1184C13.3948 29.1311 14.7683 29.7001 16.2005 29.7001Z" fill="white"/>
<path fill-rule="evenodd" clip-rule="evenodd" d="M29.6992 21.5996C30.0395 21.5996 30.3372 21.7714 30.4242 22.0182L31.3086 24.524L33.824 25.6124C34.0562 25.7128 34.1992 25.8986 34.1992 26.0996C34.1992 26.3006 34.0562 26.4864 33.824 26.5868L31.3086 27.6752L30.4242 30.181C30.3372 30.4278 30.0395 30.5996 29.6992 30.5996C29.3589 30.5996 29.0612 30.4278 28.9742 30.181L28.0897 27.6752L25.5744 26.5868C25.3423 26.4864 25.1992 26.3006 25.1992 26.0996C25.1992 25.8986 25.3423 25.7128 25.5744 25.6124L28.0897 24.524L28.9742 22.0182C29.0612 21.7714 29.3589 21.5996 29.6992 21.5996Z" fill="white"/>
<path fill-rule="evenodd" clip-rule="evenodd" d="M6.2996 4.5C6.50378 4.5 6.68237 4.6031 6.73462 4.75114L7.26527 6.25464L8.77448 6.90766C8.91378 6.96794 8.99961 7.07938 8.99961 7.2C8.99961 7.32062 8.91379 7.43206 8.77448 7.49234L7.26527 8.14536L6.73462 9.64886C6.68237 9.7969 6.50378 9.9 6.2996 9.9C6.09542 9.9 5.91683 9.7969 5.86458 9.64886L5.33393 8.14536L3.82473 7.49234C3.68543 7.43206 3.59961 7.32062 3.59961 7.2C3.59961 7.07939 3.68543 6.96794 3.82473 6.90766L5.33393 6.25464L5.86458 4.75114C5.91683 4.6031 6.09542 4.5 6.2996 4.5Z" fill="white"/>
</svg>