<svg xmlns="http://www.w3.org/2000/svg" width="24" height="24" viewBox="0 0 24 24" fill="none">
  <g clip-path="url(#clip0_2002_3473)">
    <g filter="url(#filter0_d_2002_3473)">
      <path d="M5.66953 9.91436L8.73167 5.77133C10.711 3.09327 11.7007 1.75425 12.6241 2.03721C13.5474 2.32018 13.5474 3.96249 13.5474 7.24712V7.55682C13.5474 8.74151 13.5474 9.33386 13.926 9.70541L13.946 9.72466C14.3327 10.0884 14.9492 10.0884 16.1822 10.0884C18.4011 10.0884 19.5106 10.0884 19.8855 10.7613C19.8917 10.7724 19.8977 10.7837 19.9036 10.795C20.2576 11.4784 19.6152 12.3475 18.3304 14.0857L15.2683 18.2287C13.2889 20.9067 12.2992 22.2458 11.3758 21.9628C10.4525 21.6798 10.4525 20.0375 10.4525 16.7528L10.4526 16.4433C10.4526 15.2585 10.4526 14.6662 10.074 14.2946L10.054 14.2754C9.6673 13.9117 9.05079 13.9117 7.81775 13.9117C5.59888 13.9117 4.48945 13.9117 4.1145 13.2387C4.10829 13.2276 4.10225 13.2164 4.09639 13.205C3.74244 12.5217 4.3848 11.6526 5.66953 9.91436Z" fill="url(#paint0_radial_2002_3473)"/>
    </g>
  </g>
  <defs>
    <filter id="filter0_d_2002_3473" x="0" y="-2" width="24" height="28" filterUnits="userSpaceOnUse" color-interpolation-filters="sRGB">
      <feFlood flood-opacity="0" result="BackgroundImageFix"/>
      <feColorMatrix in="SourceAlpha" type="matrix" values="0 0 0 0 0 0 0 0 0 0 0 0 0 0 0 0 0 0 127 0" result="hardAlpha"/>
      <feMorphology radius="4" operator="dilate" in="SourceAlpha" result="effect1_dropShadow_2002_3473"/>
      <feOffset/>
      <feComposite in2="hardAlpha" operator="out"/>
      <feColorMatrix type="matrix" values="0 0 0 0 1 0 0 0 0 0.462745 0 0 0 0 0.168627 0 0 0 0.32 0"/>
      <feBlend mode="normal" in2="BackgroundImageFix" result="effect1_dropShadow_2002_3473"/>
      <feBlend mode="normal" in="SourceGraphic" in2="effect1_dropShadow_2002_3473" result="shape"/>
    </filter>
    <radialGradient id="paint0_radial_2002_3473" cx="0" cy="0" r="1" gradientUnits="userSpaceOnUse" gradientTransform="translate(12 2) rotate(90) scale(20 13.356)">
      <stop stop-color="#FCD445"/>
      <stop offset="1" stop-color="#FF742A"/>
    </radialGradient>
    <clipPath id="clip0_2002_3473">
      <rect width="24" height="24" fill="white"/>
    </clipPath>
  </defs>
</svg>