<svg xmlns="http://www.w3.org/2000/svg" width="36" height="36" viewBox="0 0 36 36" fill="none">
  <g clip-path="url(#clip0_2002_2873)">
    <path d="M17.9199 3.43555C11.2216 3.43555 5.38513 7.26955 3.69988 12.7168H2.46238C2.13435 12.7172 1.81037 12.7892 1.51313 12.928C1.21589 13.0667 0.952585 13.2688 0.74166 13.52C0.530736 13.7713 0.377293 14.0656 0.292083 14.3823C0.206872 14.6991 0.191955 15.0307 0.248376 15.3538L0.819876 18.6388C0.95607 19.4219 1.36432 20.1319 1.97268 20.6435C2.58104 21.1552 3.35047 21.4356 4.14538 21.4355H4.73713C5.41213 22.5898 6.28513 23.636 7.31338 24.545L5.67313 30.1183C5.6238 30.2861 5.61429 30.4631 5.64533 30.6352C5.67637 30.8074 5.74712 30.9699 5.85196 31.1099C5.9568 31.2499 6.09284 31.3635 6.24927 31.4417C6.4057 31.52 6.57822 31.5606 6.75313 31.5605H11.2531C11.4853 31.5606 11.7117 31.4888 11.9014 31.3551C12.0912 31.2213 12.2349 31.0322 12.3129 30.8135L13.3974 27.7738C14.8261 28.163 16.3449 28.3745 17.9221 28.3745C19.5129 28.3745 21.0451 28.1608 22.4851 27.7625L23.7069 30.8495C23.7899 31.0593 23.934 31.2392 24.1206 31.366C24.3072 31.4928 24.5276 31.5606 24.7531 31.5605H29.2531C29.4287 31.5604 29.6017 31.5191 29.7585 31.4401C29.9152 31.361 30.0513 31.2464 30.1558 31.1054C30.2603 30.9643 30.3304 30.8008 30.3604 30.6278C30.3904 30.4549 30.3795 30.2773 30.3286 30.1093L28.6164 24.4708C31.0734 22.2635 32.6259 19.2575 32.6259 15.905C32.6259 15.5788 32.6101 15.2525 32.5809 14.9353C33.1681 14.6878 33.7239 14.3368 34.1671 13.9363C34.8759 14.6248 36.0009 14.6248 36.0009 12.998C36.0009 13.4998 34.8759 13.4998 34.9636 12.9395C35.0581 12.7589 35.1263 12.5657 35.1661 12.3658C35.219 12.1052 35.2051 11.8354 35.1256 11.5817C35.0462 11.3279 34.9037 11.0984 34.7116 10.9145C34.509 10.7057 34.2424 10.5706 33.9542 10.5306C33.666 10.4907 33.3727 10.5482 33.1209 10.694C32.8894 10.822 32.6919 11.0036 32.5451 11.2236C32.3983 11.4436 32.3064 11.6957 32.2771 11.9585C32.2231 12.5053 32.4616 13.0385 32.9971 13.43C32.8113 13.5585 32.6166 13.6735 32.4144 13.7743C31.2129 7.7803 25.0254 3.43555 17.9199 3.43555ZM34.0591 12.1565C34.0191 12.3276 33.944 12.4885 33.8386 12.629C33.805 12.6115 33.7719 12.5927 33.7396 12.5728C33.4111 12.3703 33.3864 12.179 33.3976 12.071C33.4087 11.9903 33.4382 11.9132 33.4839 11.8457C33.5295 11.7782 33.5901 11.7221 33.6609 11.6818C33.7711 11.621 33.8409 11.6345 33.9151 11.7088C33.9777 11.7632 34.0242 11.8337 34.0495 11.9126C34.0749 11.9915 34.0782 12.0759 34.0591 12.1565ZM13.8114 10.694C13.6672 10.743 13.5147 10.7621 13.3629 10.7503C13.2112 10.7386 13.0634 10.6961 12.9285 10.6256C12.7937 10.5551 12.6745 10.4579 12.5783 10.34C12.482 10.2221 12.4107 10.0858 12.3687 9.93955C12.3266 9.79327 12.3147 9.63998 12.3336 9.48896C12.3525 9.33793 12.4019 9.19231 12.4787 9.06092C12.5555 8.92952 12.6582 8.81508 12.7805 8.72452C12.9028 8.63395 13.0423 8.56916 13.1904 8.53405C14.7284 8.09455 16.3203 7.87265 17.9199 7.8748C19.6366 7.8748 21.2881 8.1223 22.8249 8.58355C22.9664 8.62595 23.0982 8.69581 23.2127 8.78914C23.3273 8.88248 23.4223 8.99746 23.4924 9.12752C23.5625 9.25758 23.6063 9.40017 23.6213 9.54716C23.6363 9.69414 23.6222 9.84264 23.5798 9.98417C23.5373 10.1257 23.4675 10.2575 23.3742 10.372C23.2808 10.4866 23.1658 10.5816 23.0358 10.6517C22.9057 10.7218 22.7631 10.7656 22.6161 10.7806C22.4692 10.7956 22.3207 10.7814 22.1791 10.739C20.7967 10.3286 19.3619 10.1217 17.9199 10.1248C16.4799 10.1248 15.0961 10.3273 13.8114 10.6963V10.694ZM11.2509 14.0623C11.2509 14.5098 11.0731 14.9391 10.7566 15.2555C10.4402 15.572 10.0109 15.7498 9.56338 15.7498C9.11582 15.7498 8.6866 15.572 8.37013 15.2555C8.05367 14.9391 7.87588 14.5098 7.87588 14.0623C7.87588 13.6147 8.05367 13.1855 8.37013 12.8691C8.6866 12.5526 9.11582 12.3748 9.56338 12.3748C10.0109 12.3748 10.4402 12.5526 10.7566 12.8691C11.0731 13.1855 11.2509 13.6147 11.2509 14.0623Z" fill="white"/>
  </g>
  <defs>
    <clipPath id="clip0_2002_2873">
      <rect width="36" height="36" fill="white"/>
    </clipPath>
  </defs>
</svg>