<svg xmlns="http://www.w3.org/2000/svg" width="36" height="36" viewBox="0 0 36 36" fill="none">
  <path d="M29.6526 10.4459C29.6408 10.2592 29.5667 10.0819 29.4422 9.94227C29.3176 9.80269 29.1499 9.70892 28.9657 9.67597C24.4475 8.86534 22.5613 8.27931 18.345 6.37496C18.2368 6.32607 18.1195 6.30078 18.0008 6.30078C17.8821 6.30078 17.7647 6.32607 17.6566 6.37496C13.4402 8.27931 11.5541 8.86534 7.03585 9.67597C6.85171 9.70892 6.68394 9.80269 6.55941 9.94227C6.43488 10.0819 6.36078 10.2592 6.34897 10.4459C6.14787 13.6377 6.57671 16.6118 7.62505 19.2855C8.48352 21.4664 9.754 23.4616 11.3671 25.162C14.16 28.1251 17.1253 29.4121 17.691 29.6398C17.8921 29.7211 18.1168 29.7211 18.3178 29.6398C18.8835 29.4121 21.8489 28.1251 24.6418 25.162C26.2523 23.4609 27.5202 21.4658 28.3765 19.2855C29.4249 16.6118 29.8537 13.6377 29.6526 10.4459ZM22.81 14.3689L17.0224 21.0545C16.948 21.1408 16.8568 21.2108 16.7543 21.2605C16.6518 21.3102 16.5402 21.3384 16.4265 21.3434H16.392C16.1732 21.3434 15.9632 21.2577 15.807 21.1047L13.2371 18.5871C13.1586 18.5103 13.0961 18.4188 13.0531 18.3178C13.0101 18.2169 12.9873 18.1084 12.9862 17.9986C12.984 17.777 13.0699 17.5635 13.225 17.4052C13.3802 17.2468 13.5919 17.1566 13.8136 17.1543C14.0353 17.1521 14.2487 17.238 14.4071 17.3931L16.3397 19.2886L21.5475 13.2752C21.6925 13.1076 21.8982 13.0045 22.1193 12.9885C22.3404 12.9725 22.5588 13.0451 22.7264 13.1901C22.894 13.3351 22.9971 13.5408 23.0131 13.7619C23.0291 13.983 22.9566 14.2013 22.8115 14.3689H22.81Z" fill="white"/>
  <path d="M30.7296 19.3507C32.0472 15.9902 32.5936 12.2343 32.338 8.17652C32.3353 8.13345 32.3182 8.09253 32.2894 8.06032C32.2607 8.02811 32.222 8.00647 32.1795 7.99886L32.179 7.99879C26.1971 6.92555 23.6596 6.13702 18.0789 3.61644L18.0787 3.61634C18.0537 3.60506 18.0266 3.59922 17.9992 3.59922C17.9718 3.59922 17.9447 3.60506 17.9198 3.61634L17.9195 3.61644C12.3389 6.13702 9.80132 6.92555 3.81939 7.99879L3.81897 7.99886C3.77646 8.00647 3.73774 8.02811 3.709 8.06033C3.68031 8.09248 3.66322 8.13331 3.66046 8.1763L30.7296 19.3507ZM30.7296 19.3507C29.6521 22.0942 28.0565 24.6047 26.0301 26.7452L26.0287 26.7466C22.4986 30.4917 18.7511 32.1135 18.0777 32.3846L18.0764 32.3851C18.0299 32.4039 17.9781 32.4039 17.9316 32.3851L17.9303 32.3846C17.2569 32.1135 13.5094 30.4917 9.9793 26.7466L9.97733 26.7445C7.94759 24.6048 6.34892 22.0943 5.26864 19.3501C3.95117 15.9898 3.40483 12.2341 3.66044 8.17652L30.7296 19.3507ZM17.5942 33.2195C17.857 33.3258 18.151 33.3258 18.4138 33.2195C19.1536 32.9217 23.0313 31.2387 26.6836 27.3639C28.7896 25.1394 30.4477 22.5304 31.5675 19.6792L17.5942 33.2195Z" stroke="white" stroke-width="1.8"/>
</svg>