<svg xmlns="http://www.w3.org/2000/svg" width="36" height="36" viewBox="0 0 36 36" fill="none">
<path fill-rule="evenodd" clip-rule="evenodd" d="M5.30922 15.7492C5.30855 14.8688 5.41904 13.9919 5.63808 13.1392H9.35472C9.17878 14.8748 9.17878 16.6237 9.35472 18.3592H5.63808C5.42406 17.524 5.30922 16.6497 5.30922 15.7492ZM9.7671 10.5292H6.70557C7.75899 8.70905 9.33538 7.24769 11.23 6.33495C10.6153 7.51858 10.1142 8.94103 9.7671 10.5292ZM22.1437 13.1392H25.8604C25.9904 13.6462 26.082 14.1604 26.1351 14.6776C27.0885 14.9145 27.9848 15.2961 28.7991 15.7978C28.7992 15.7816 28.7992 15.7654 28.7992 15.7492C28.7992 8.5417 22.9567 2.69922 15.7492 2.69922C8.5417 2.69922 2.69922 8.5417 2.69922 15.7492C2.69922 22.9567 8.5417 28.7992 15.7492 28.7992C15.7654 28.7992 15.7816 28.7992 15.7977 28.7991C15.1758 27.7896 14.7384 26.6543 14.5326 25.4402C14.1862 25.055 13.8225 24.5158 13.4694 23.8102C13.0583 22.9854 12.7125 22.0263 12.4476 20.9692H14.8461C15.1475 20.0262 15.593 19.1476 16.1566 18.3592H11.9804C11.8838 17.5175 11.8342 16.6431 11.8342 15.7492C11.8338 14.8772 11.8826 14.0058 11.9804 13.1392H19.5181C19.6023 13.8823 19.6504 14.6284 19.6624 15.375C20.466 14.9772 21.3342 14.6904 22.2472 14.5345C22.2253 14.0688 22.1908 13.6035 22.1437 13.1392ZM20.2684 6.33495C22.1631 7.24769 23.7395 8.70905 24.7929 10.5292H21.7313C21.3842 8.94103 20.8844 7.51858 20.2684 6.33495ZM18.0291 7.68823C18.4708 8.59575 18.8134 9.54825 19.0509 10.5292H12.4476C12.7125 9.47217 13.0583 8.51299 13.4694 7.68823C14.2889 6.05046 15.1646 5.30922 15.7492 5.30922C16.3326 5.30922 17.2095 6.05046 18.0291 7.68823ZM11.23 25.1635C9.33538 24.2507 7.75899 22.7894 6.70557 20.9692H9.7671C10.1142 22.5574 10.614 23.9799 11.23 25.1635Z" fill="white"/>
<path d="M23.4008 27.0008H23.3549C23.1284 27.0008 22.9111 26.9108 22.7509 26.7506C22.5908 26.5904 22.5008 26.3732 22.5008 26.1467C22.5008 25.908 22.406 25.6791 22.2372 25.5103C22.0684 25.3415 21.8395 25.2467 21.6008 25.2467C21.3621 25.2467 21.1332 25.3415 20.9644 25.5103C20.7956 25.6791 20.7008 25.908 20.7008 26.1467C20.7008 26.8506 20.9804 27.5257 21.4781 28.0234C21.9759 28.5212 22.651 28.8008 23.3549 28.8008H23.4008V29.7008C23.4008 29.9395 23.4956 30.1684 23.6644 30.3372C23.8332 30.506 24.0621 30.6008 24.3008 30.6008C24.5395 30.6008 24.7684 30.506 24.9372 30.3372C25.106 30.1684 25.2008 29.9395 25.2008 29.7008V28.8008C25.9169 28.8008 26.6036 28.5163 27.11 28.01C27.6163 27.5036 27.9008 26.8169 27.9008 26.1008C27.9008 25.3847 27.6163 24.6979 27.11 24.1916C26.6036 23.6852 25.9169 23.4008 25.2008 23.4008V21.6008H25.2206C25.7066 21.6008 26.1008 21.995 26.1008 22.481C26.1008 22.7197 26.1956 22.9486 26.3644 23.1174C26.5332 23.2862 26.7621 23.381 27.0008 23.381C27.2395 23.381 27.4684 23.2862 27.6372 23.1174C27.806 22.9486 27.9008 22.7197 27.9008 22.481C27.9008 21.7701 27.6184 21.0884 27.1158 20.5858C26.6131 20.0832 25.9314 19.8008 25.2206 19.8008H25.2008V18.9008C25.2008 18.6621 25.106 18.4332 24.9372 18.2644C24.7684 18.0956 24.5395 18.0008 24.3008 18.0008C24.0621 18.0008 23.8332 18.0956 23.6644 18.2644C23.4956 18.4332 23.4008 18.6621 23.4008 18.9008V19.8008C23.0462 19.8008 22.6951 19.8706 22.3675 20.0063C22.04 20.142 21.7423 20.3409 21.4916 20.5916C21.2409 20.8423 21.042 21.14 20.9063 21.4675C20.7706 21.7951 20.7008 22.1462 20.7008 22.5008C20.7008 22.8554 20.7706 23.2064 20.9063 23.534C21.042 23.8616 21.2409 24.1593 21.4916 24.41C21.7423 24.6607 22.04 24.8596 22.3675 24.9953C22.6951 25.1309 23.0462 25.2008 23.4008 25.2008V27.0008ZM25.2008 27.0008V25.2008C25.4395 25.2008 25.6684 25.2956 25.8372 25.4644C26.006 25.6332 26.1008 25.8621 26.1008 26.1008C26.1008 26.3395 26.006 26.5684 25.8372 26.7372C25.6684 26.906 25.4395 27.0008 25.2008 27.0008ZM23.4008 21.6008V23.4008C23.1621 23.4008 22.9332 23.306 22.7644 23.1372C22.5956 22.9684 22.5008 22.7395 22.5008 22.5008C22.5008 22.2621 22.5956 22.0332 22.7644 21.8644C22.9332 21.6956 23.1621 21.6008 23.4008 21.6008ZM24.3008 33.3008C19.3301 33.3008 15.3008 29.2715 15.3008 24.3008C15.3008 19.3301 19.3301 15.3008 24.3008 15.3008C29.2715 15.3008 33.3008 19.3301 33.3008 24.3008C33.3008 29.2715 29.2715 33.3008 24.3008 33.3008Z" fill="white"/>
</svg>